<svg width="198" height="63" viewBox="0 0 198 63" fill="none" xmlns="http://www.w3.org/2000/svg">
<g clip-path="url(#clip0_81_560)">
<path d="M0 1.96875C0 1.4466 0.207421 0.945846 0.576634 0.576634C0.945846 0.207421 1.4466 0 1.96875 0L13.7812 0C14.3034 0 14.8042 0.207421 15.1734 0.576634C15.5426 0.945846 15.75 1.4466 15.75 1.96875C15.75 2.4909 15.5426 2.99165 15.1734 3.36087C14.8042 3.73008 14.3034 3.9375 13.7812 3.9375H3.9375V13.7812C3.9375 14.3034 3.73008 14.8042 3.36087 15.1734C2.99165 15.5426 2.4909 15.75 1.96875 15.75C1.4466 15.75 0.945846 15.5426 0.576634 15.1734C0.207421 14.8042 0 14.3034 0 13.7812V1.96875ZM47.25 1.96875C47.25 1.4466 47.4574 0.945846 47.8266 0.576634C48.1958 0.207421 48.6966 0 49.2188 0L61.0312 0C61.5534 0 62.0542 0.207421 62.4234 0.576634C62.7926 0.945846 63 1.4466 63 1.96875V13.7812C63 14.3034 62.7926 14.8042 62.4234 15.1734C62.0542 15.5426 61.5534 15.75 61.0312 15.75C60.5091 15.75 60.0083 15.5426 59.6391 15.1734C59.2699 14.8042 59.0625 14.3034 59.0625 13.7812V3.9375H49.2188C48.6966 3.9375 48.1958 3.73008 47.8266 3.36087C47.4574 2.99165 47.25 2.4909 47.25 1.96875ZM1.96875 47.25C2.4909 47.25 2.99165 47.4574 3.36087 47.8266C3.73008 48.1958 3.9375 48.6966 3.9375 49.2188V59.0625H13.7812C14.3034 59.0625 14.8042 59.2699 15.1734 59.6391C15.5426 60.0083 15.75 60.5091 15.75 61.0312C15.75 61.5534 15.5426 62.0542 15.1734 62.4234C14.8042 62.7926 14.3034 63 13.7812 63H1.96875C1.4466 63 0.945846 62.7926 0.576634 62.4234C0.207421 62.0542 0 61.5534 0 61.0312V49.2188C0 48.6966 0.207421 48.1958 0.576634 47.8266C0.945846 47.4574 1.4466 47.25 1.96875 47.25ZM61.0312 47.25C61.5534 47.25 62.0542 47.4574 62.4234 47.8266C62.7926 48.1958 63 48.6966 63 49.2188V61.0312C63 61.5534 62.7926 62.0542 62.4234 62.4234C62.0542 62.7926 61.5534 63 61.0312 63H49.2188C48.6966 63 48.1958 62.7926 47.8266 62.4234C47.4574 62.0542 47.25 61.5534 47.25 61.0312C47.25 60.5091 47.4574 60.0083 47.8266 59.6391C48.1958 59.2699 48.6966 59.0625 49.2188 59.0625H59.0625V49.2188C59.0625 48.6966 59.2699 48.1958 59.6391 47.8266C60.0083 47.4574 60.5091 47.25 61.0312 47.25ZM15.75 15.75H19.6875V19.6875H15.75V15.75Z" fill="#306AFF"/>
<path d="M27.5625 7.875H7.875V27.5625H27.5625V7.875ZM11.8125 11.8125H23.625V23.625H11.8125V11.8125ZM19.6875 43.3125H15.75V47.25H19.6875V43.3125Z" fill="#306AFF"/>
<path d="M27.5625 35.4375H7.875V55.125H27.5625V35.4375ZM11.8125 39.375H23.625V51.1875H11.8125V39.375ZM43.3125 15.75H47.25V19.6875H43.3125V15.75Z" fill="#306AFF"/>
<path d="M35.4375 7.875H55.125V27.5625H35.4375V7.875ZM39.375 11.8125V23.625H51.1875V11.8125H39.375ZM31.5 31.5V39.375H35.4375V43.3125H31.5V47.25H39.375V39.375H43.3125V47.25H47.25V43.3125H55.125V39.375H43.3125V31.5H31.5ZM39.375 39.375H35.4375V35.4375H39.375V39.375ZM55.125 47.25H51.1875V51.1875H43.3125V55.125H55.125V47.25ZM39.375 55.125V51.1875H31.5V55.125H39.375Z" fill="#306AFF"/>
<path d="M47.25 35.4375H55.125V31.5H47.25V35.4375Z" fill="#306AFF"/>
</g>
<path d="M102.072 45.656C102.408 45.656 102.708 45.788 102.972 46.052C103.26 46.316 103.404 46.64 103.404 47.024C103.404 47.48 103.176 47.912 102.72 48.32C102.288 48.752 101.712 49.136 100.992 49.472C100.296 49.808 99.552 50.072 98.76 50.264C97.992 50.456 97.272 50.552 96.6 50.552C95.136 50.552 93.936 50.396 93 50.084C92.088 49.796 91.284 49.46 90.588 49.076C89.916 48.692 89.244 48.344 88.572 48.032C87.924 47.744 87.144 47.6 86.232 47.6C85.776 47.6 85.392 47.672 85.08 47.816C84.768 47.96 84.468 48.104 84.18 48.248C83.892 48.392 83.556 48.464 83.172 48.464C82.764 48.464 82.416 48.308 82.128 47.996C81.864 47.708 81.732 47.384 81.732 47.024C81.732 46.4 82.008 45.98 82.56 45.764L89.184 43.388L92.46 43.712L86.34 45.872L87.348 45.116C88.284 45.116 89.124 45.26 89.868 45.548C90.612 45.836 91.32 46.16 91.992 46.52C92.664 46.88 93.372 47.204 94.116 47.492C94.884 47.78 95.748 47.924 96.708 47.924C97.548 47.924 98.244 47.792 98.796 47.528C99.372 47.288 99.84 47.048 100.2 46.808C100.56 46.544 100.872 46.28 101.136 46.016C101.424 45.776 101.736 45.656 102.072 45.656ZM100.884 31.4C100.884 33.248 100.584 34.964 99.984 36.548C99.384 38.108 98.544 39.476 97.464 40.652C96.384 41.828 95.1 42.74 93.612 43.388C92.124 44.036 90.504 44.36 88.752 44.36C86.976 44.36 85.344 44.036 83.856 43.388C82.392 42.74 81.12 41.828 80.04 40.652C78.96 39.476 78.12 38.108 77.52 36.548C76.92 34.964 76.62 33.248 76.62 31.4C76.62 29.528 76.92 27.812 77.52 26.252C78.12 24.668 78.96 23.3 80.04 22.148C81.12 20.972 82.392 20.06 83.856 19.412C85.344 18.764 86.976 18.44 88.752 18.44C90.504 18.44 92.124 18.764 93.612 19.412C95.1 20.06 96.384 20.972 97.464 22.148C98.544 23.3 99.384 24.668 99.984 26.252C100.584 27.812 100.884 29.528 100.884 31.4ZM97.788 31.4C97.788 29.432 97.392 27.692 96.6 26.18C95.832 24.668 94.776 23.48 93.432 22.616C92.088 21.752 90.528 21.32 88.752 21.32C86.976 21.32 85.404 21.752 84.036 22.616C82.692 23.48 81.636 24.668 80.868 26.18C80.1 27.692 79.716 29.432 79.716 31.4C79.716 33.344 80.1 35.084 80.868 36.62C81.636 38.132 82.692 39.32 84.036 40.184C85.404 41.048 86.976 41.48 88.752 41.48C90.528 41.48 92.088 41.048 93.432 40.184C94.776 39.32 95.832 38.132 96.6 36.62C97.392 35.084 97.788 33.344 97.788 31.4ZM107.492 44C107.036 44 106.64 43.856 106.304 43.568C105.992 43.28 105.836 42.932 105.836 42.524V20.24C105.836 19.832 105.968 19.496 106.232 19.232C106.52 18.944 106.868 18.8 107.276 18.8H117.212C118.556 18.8 119.768 19.112 120.848 19.736C121.928 20.336 122.78 21.176 123.404 22.256C124.052 23.312 124.376 24.536 124.376 25.928C124.376 26.936 124.184 27.884 123.8 28.772C123.416 29.636 122.888 30.392 122.216 31.04C121.544 31.664 120.776 32.144 119.912 32.48L119.12 31.904C119.936 32.096 120.668 32.444 121.316 32.948C121.964 33.428 122.492 34.052 122.9 34.82C123.308 35.564 123.524 36.44 123.548 37.448C123.596 38.336 123.656 39.044 123.728 39.572C123.8 40.1 123.908 40.52 124.052 40.832C124.196 41.12 124.4 41.348 124.664 41.516C125 41.732 125.216 42.02 125.312 42.38C125.432 42.74 125.372 43.088 125.132 43.424C124.988 43.64 124.784 43.796 124.52 43.892C124.256 43.964 123.992 43.988 123.728 43.964C123.464 43.94 123.236 43.868 123.044 43.748C122.66 43.532 122.288 43.22 121.928 42.812C121.568 42.38 121.268 41.768 121.028 40.976C120.788 40.184 120.668 39.104 120.668 37.736C120.668 36.968 120.548 36.332 120.308 35.828C120.068 35.324 119.744 34.916 119.336 34.604C118.928 34.292 118.472 34.076 117.968 33.956C117.464 33.836 116.948 33.776 116.42 33.776H108.392L108.824 33.128V42.524C108.824 42.932 108.704 43.28 108.464 43.568C108.224 43.856 107.9 44 107.492 44ZM108.392 31.184H117.212C117.908 31.136 118.556 30.896 119.156 30.464C119.78 30.032 120.284 29.432 120.668 28.664C121.076 27.872 121.28 26.984 121.28 26C121.28 24.728 120.872 23.672 120.056 22.832C119.264 21.992 118.256 21.572 117.032 21.572H108.536L108.824 20.888V31.832L108.392 31.184Z" fill="#1A1A1A"/>
<path d="M141.648 44.36C139.8 44.36 138.084 44.036 136.5 43.388C134.94 42.716 133.56 41.792 132.36 40.616C131.184 39.44 130.26 38.072 129.588 36.512C128.94 34.928 128.616 33.224 128.616 31.4C128.616 29.552 128.94 27.848 129.588 26.288C130.26 24.704 131.184 23.324 132.36 22.148C133.56 20.972 134.94 20.06 136.5 19.412C138.084 18.764 139.8 18.44 141.648 18.44C142.872 18.44 144.048 18.584 145.176 18.872C146.328 19.136 147.372 19.556 148.308 20.132C148.548 20.252 148.716 20.42 148.812 20.636C148.932 20.852 148.992 21.08 148.992 21.32C148.992 21.728 148.848 22.076 148.56 22.364C148.296 22.652 147.984 22.796 147.624 22.796C147.48 22.796 147.336 22.772 147.192 22.724C147.072 22.676 146.94 22.628 146.796 22.58C146.052 22.196 145.248 21.896 144.384 21.68C143.52 21.44 142.608 21.32 141.648 21.32C139.752 21.32 138.048 21.764 136.536 22.652C135.048 23.54 133.872 24.74 133.008 26.252C132.144 27.764 131.712 29.48 131.712 31.4C131.712 33.296 132.144 35.012 133.008 36.548C133.872 38.06 135.048 39.26 136.536 40.148C138.048 41.036 139.752 41.48 141.648 41.48C142.608 41.48 143.592 41.348 144.6 41.084C145.632 40.82 146.508 40.484 147.228 40.076L146.976 40.94V33.344L147.552 33.848H142.044C141.636 33.848 141.288 33.716 141 33.452C140.736 33.164 140.604 32.816 140.604 32.408C140.604 32 140.736 31.664 141 31.4C141.288 31.112 141.636 30.968 142.044 30.968H148.596C149.028 30.968 149.376 31.112 149.64 31.4C149.904 31.688 150.036 32.036 150.036 32.444V40.76C150.036 41.048 149.964 41.3 149.82 41.516C149.7 41.732 149.532 41.912 149.316 42.056C148.236 42.752 147.036 43.316 145.716 43.748C144.42 44.156 143.064 44.36 141.648 44.36ZM163.295 44.36C161.375 44.36 159.695 43.952 158.255 43.136C156.815 42.32 155.687 41.204 154.871 39.788C154.079 38.348 153.683 36.692 153.683 34.82C153.683 32.732 154.091 30.956 154.907 29.492C155.747 28.004 156.827 26.876 158.147 26.108C159.491 25.316 160.907 24.92 162.395 24.92C163.499 24.92 164.567 25.124 165.599 25.532C166.631 25.94 167.543 26.54 168.335 27.332C169.127 28.1 169.763 29.036 170.243 30.14C170.723 31.22 170.975 32.432 170.999 33.776C170.999 34.16 170.855 34.484 170.567 34.748C170.279 35.012 169.943 35.144 169.559 35.144H155.339L154.691 32.66H168.551L167.975 33.164V32.372C167.879 31.388 167.543 30.548 166.967 29.852C166.415 29.132 165.731 28.58 164.915 28.196C164.123 27.812 163.283 27.62 162.395 27.62C161.675 27.62 160.955 27.752 160.235 28.016C159.539 28.256 158.903 28.664 158.327 29.24C157.775 29.792 157.319 30.512 156.959 31.4C156.623 32.288 156.455 33.356 156.455 34.604C156.455 35.996 156.731 37.22 157.283 38.276C157.859 39.332 158.651 40.172 159.659 40.796C160.667 41.396 161.843 41.696 163.187 41.696C164.027 41.696 164.759 41.588 165.383 41.372C166.007 41.156 166.547 40.892 167.003 40.58C167.459 40.244 167.843 39.908 168.155 39.572C168.467 39.356 168.767 39.248 169.055 39.248C169.415 39.248 169.703 39.368 169.919 39.608C170.159 39.848 170.279 40.136 170.279 40.472C170.279 40.88 170.087 41.24 169.703 41.552C169.031 42.296 168.119 42.956 166.967 43.532C165.815 44.084 164.591 44.36 163.295 44.36ZM184.58 24.92C186.212 24.92 187.496 25.256 188.432 25.928C189.368 26.6 190.028 27.5 190.412 28.628C190.82 29.756 191.024 31.016 191.024 32.408V42.524C191.024 42.932 190.88 43.28 190.592 43.568C190.328 43.856 189.992 44 189.584 44C189.176 44 188.828 43.856 188.54 43.568C188.276 43.28 188.144 42.932 188.144 42.524V32.48C188.144 31.568 188 30.752 187.712 30.032C187.448 29.288 186.992 28.7 186.344 28.268C185.72 27.812 184.856 27.584 183.752 27.584C182.744 27.584 181.82 27.812 180.98 28.268C180.14 28.7 179.468 29.288 178.964 30.032C178.46 30.752 178.208 31.568 178.208 32.48V42.524C178.208 42.932 178.064 43.28 177.776 43.568C177.512 43.856 177.176 44 176.768 44C176.36 44 176.012 43.856 175.724 43.568C175.46 43.28 175.328 42.932 175.328 42.524V26.828C175.328 26.42 175.46 26.084 175.724 25.82C176.012 25.532 176.36 25.388 176.768 25.388C177.2 25.388 177.548 25.532 177.812 25.82C178.076 26.084 178.208 26.42 178.208 26.828V29.384L177.488 30.176C177.608 29.552 177.884 28.928 178.316 28.304C178.748 27.656 179.288 27.08 179.936 26.576C180.584 26.072 181.304 25.676 182.096 25.388C182.888 25.076 183.716 24.92 184.58 24.92Z" fill="#306AFF"/>
<defs>
<clipPath id="clip0_81_560">
<rect width="63" height="63" fill="white"/>
</clipPath>
</defs>
</svg>
